<svg width="512" height="512" viewBox="0 0 512 512" fill="none" xmlns="http://www.w3.org/2000/svg">
    <circle
            cx="256"
            cy="256"
            r="230.4"
            fill="none"
            stroke="currentColor"
            stroke-width="32"/>
    <path d="M140.801 124.8C175.597 124.8 208.969 138.623 233.573 163.228C258.178 187.832 272 221.204 272 256L272.008 257.233C272.329 283.096 282.743 307.832 301.056 326.145C319.659 344.748 344.891 355.2 371.2 355.2C397.51 355.2 422.742 344.748 441.346 326.145C459.949 307.541 470.4 282.31 470.4 256H502.4C502.4 290.797 488.577 324.168 463.973 348.773C439.368 373.377 405.997 387.2 371.2 387.2C336.404 387.2 303.032 373.377 278.428 348.773C254.207 324.552 240.435 291.837 240.011 257.63L240 256C240 229.691 229.549 204.458 210.945 185.855C192.342 167.251 167.11 156.8 140.801 156.8C114.491 156.8 89.2589 167.251 70.6553 185.855C52.0517 204.458 41.6006 229.691 41.6006 256H9.60059C9.60059 221.204 23.4235 187.833 48.0283 163.228C72.6331 138.623 106.004 124.8 140.801 124.8Z"
          fill="currentColor"/>
    <circle
            cx="371.201"
            cy="256"
            r="36.8"
            fill="currentColor"/>
    <circle
            cx="140.801"
            cy="256"
            r="36.8"
            fill="currentColor"/>
</svg>
