<svg width="512" height="512" viewBox="0 0 512 512" fill="none" xmlns="http://www.w3.org/2000/svg">
<circle cx="256" cy="256" r="230" transform="rotate(90 256 256)" fill="url(#paint0_linear_32_8)" fill-opacity="0.3"/>
<path d="M256 470.4C374.41 470.4 470.4 374.41 470.4 256C470.4 137.591 374.41 41.6 256 41.6C137.59 41.6002 41.6006 137.591 41.6006 256C41.6008 374.41 137.59 470.4 256 470.4ZM256 502.4C119.917 502.4 9.6008 392.083 9.60059 256C9.60059 119.918 119.917 9.60022 256 9.60001C392.083 9.60001 502.4 119.917 502.4 256C502.4 392.083 392.083 502.4 256 502.4Z" fill="url(#paint1_linear_32_8)"/>
<path d="M140.801 124.8C175.597 124.8 208.969 138.623 233.573 163.228C258.178 187.832 272 221.204 272 256L272.008 257.233C272.329 283.096 282.743 307.832 301.056 326.145C319.659 344.748 344.891 355.2 371.2 355.2C397.51 355.2 422.742 344.748 441.346 326.145C459.949 307.541 470.4 282.31 470.4 256H502.4C502.4 290.797 488.577 324.168 463.973 348.773C439.368 373.377 405.997 387.2 371.2 387.2C336.404 387.2 303.032 373.377 278.428 348.773C254.207 324.552 240.435 291.837 240.011 257.63L240 256C240 229.691 229.549 204.458 210.945 185.855C192.342 167.251 167.11 156.8 140.801 156.8C114.491 156.8 89.2589 167.251 70.6553 185.855C52.0517 204.458 41.6006 229.691 41.6006 256H9.60059C9.60059 221.204 23.4235 187.833 48.0283 163.228C72.6331 138.623 106.004 124.8 140.801 124.8Z" fill="url(#paint2_linear_32_8)"/>
<path d="M342.4 256C342.4 271.906 355.295 284.8 371.2 284.8C387.106 284.8 400 271.906 400 256C400 240.094 387.106 227.2 371.2 227.2C355.295 227.2 342.4 240.094 342.4 256Z" fill="url(#paint3_linear_32_8)"/>
<path d="M371.201 276.8C382.688 276.8 392 267.487 392 256C392 244.512 382.688 235.2 371.201 235.2C359.713 235.2 350.401 244.512 350.401 256C350.401 267.487 359.713 276.8 371.201 276.8ZM371.201 292.8C350.877 292.8 334.401 276.324 334.401 256C334.401 235.676 350.877 219.2 371.201 219.2C391.525 219.2 408 235.676 408 256C408 276.324 391.525 292.8 371.201 292.8Z" fill="url(#paint4_linear_32_8)"/>
<path d="M112 256C112 271.906 124.895 284.8 140.8 284.8C156.706 284.8 169.6 271.906 169.6 256C169.6 240.094 156.706 227.2 140.8 227.2C124.895 227.2 112 240.094 112 256Z" fill="url(#paint5_linear_32_8)"/>
<path d="M140.801 276.8C152.288 276.8 161.6 267.487 161.6 256C161.6 244.512 152.288 235.2 140.801 235.2C129.313 235.2 120.001 244.512 120.001 256C120.001 267.487 129.313 276.8 140.801 276.8ZM140.801 292.8C120.477 292.8 104.001 276.324 104.001 256C104.001 235.676 120.477 219.2 140.801 219.2C161.125 219.2 177.6 235.676 177.6 256C177.6 276.324 161.125 292.8 140.801 292.8Z" fill="url(#paint6_linear_32_8)"/>
<defs>
<linearGradient id="paint0_linear_32_8" x1="486" y1="26" x2="26" y2="486" gradientUnits="userSpaceOnUse">
<stop stop-color="#EEE8D5"/>
<stop offset="1" stop-color="#586E75"/>
</linearGradient>
<linearGradient id="paint1_linear_32_8" x1="502" y1="502" x2="10.0004" y2="10.0004" gradientUnits="userSpaceOnUse">
<stop stop-color="#EEE8D5"/>
<stop offset="1" stop-color="#586E75"/>
</linearGradient>
<linearGradient id="paint2_linear_32_8" x1="502" y1="502" x2="10.0004" y2="10.0004" gradientUnits="userSpaceOnUse">
<stop stop-color="#EEE8D5"/>
<stop offset="1" stop-color="#586E75"/>
</linearGradient>
<linearGradient id="paint3_linear_32_8" x1="502" y1="502" x2="10.0004" y2="10.0004" gradientUnits="userSpaceOnUse">
<stop stop-color="#EEE8D5"/>
<stop offset="1" stop-color="#586E75"/>
</linearGradient>
<linearGradient id="paint4_linear_32_8" x1="502" y1="502" x2="10.0004" y2="10.0004" gradientUnits="userSpaceOnUse">
<stop stop-color="#EEE8D5"/>
<stop offset="1" stop-color="#586E75"/>
</linearGradient>
<linearGradient id="paint5_linear_32_8" x1="502" y1="502" x2="10.0004" y2="10.0004" gradientUnits="userSpaceOnUse">
<stop stop-color="#EEE8D5"/>
<stop offset="1" stop-color="#586E75"/>
</linearGradient>
<linearGradient id="paint6_linear_32_8" x1="502" y1="502" x2="10.0004" y2="10.0004" gradientUnits="userSpaceOnUse">
<stop stop-color="#EEE8D5"/>
<stop offset="1" stop-color="#586E75"/>
</linearGradient>
</defs>
</svg>
